# AST/ASF file generated using VICON BodyLanguage
# -----------------------------------------------
:version 1.10
:name VICON
:units
  mass 1.0
  length 0.45
  angle deg
:documentation
   .ast/.asf automatically generated from VICON data using
   VICON BodyBuilder and BodyLanguage model FoxedUp or BRILLIANT.MOD
:root
   order TX TY TZ RX RY RZ
   axis XYZ
   position 0 0 0  
   orientation 0 0 0 
:bonedata
  begin
     id 1 
     name lhipjoint
     direction 0.822369 -0.411937 0.392449 
     length 3.8167 
     axis 0 0 0  XYZ
  end
  begin
     id 2 
     name lfemur
     direction 0.34202 -0.939693 0  
     length 6.16791  
     axis 0 0 20  XYZ
    dof rx ry rz
    limits (-160.0 20.0)
           (-70.0 70.0)
           (-60.0 70.0)
  end
  begin
     id 3 
     name ltibia
     direction 0.34202 -0.939693 0   
     length 7.07101   
     axis 0 0 20   XYZ
    dof rx
    limits (-10.0 170.0)
  end
  begin
     id 4 
     name lfoot
     direction 0.028254 -0.0776273 0.996582   
     length 1.66799   
     axis -90 7.62852e-016 20   XYZ
    dof rx rz
    limits (-45.0 90.0)
           (-70.0 20.0)
  end
  begin
     id 5 
     name ltoes
     direction 1.53483e-011 -4.21688e-011 1   
     length 0.851674   
     axis -90 7.62852e-016 20   XYZ
    dof rx
    limits (-90.0 20.0)
  end
  begin
     id 6 
     name rhipjoint
     direction -0.822466 -0.411836 0.392353   
     length 3.81764  
     axis 0 0 0  XYZ 
  end
  begin
     id 7 
     name rfemur
     direction -0.34202 -0.939693 0   
     length 6.28636   
     axis 0 0 -20   XYZ
    dof rx ry rz
    limits (-160.0 20.0)
           (-70.0 70.0)
           (-70.0 60.0)
  end
  begin
     id 8 
     name rtibia
     direction -0.34202 -0.939693 0   
     length 6.85621   
     axis 0 0 -20   XYZ
    dof rx
    limits (-10.0 170.0)
 end
 begin
     id 9 
     name rfoot
     direction -0.0553036 -0.151945 0.98684   
     length 1.57293  
     axis -90 -7.62852e-016 -20   XYZ
    dof rx rz
    limits (-45.0 90.0)
           (-20.0 70.0)
  end
  begin
     id 10 
     name rtoes
     direction -1.53592e-011 -4.21964e-011 1   
     length 0.802812   
     axis -90 -7.62852e-016 -20   XYZ
    dof rx
    limits (-90.0 20.0)
  end
  begin
     id 11 
     name lowerback
     direction 0.00654913 0.996475 -0.0836396   
     length 1.97212   
     axis 0 0 0   XYZ
    dof rx ry rz
    limits (-20.0 45.0)
           (-30.0 30.0)
           (-30.0 30.0)
  end
  begin
     id 12 
     name upperback
     direction 0.0111875 0.994527 0.103877   
     length 1.89704   
     axis 0 0 0   XYZ
    dof rx ry rz
    limits (-20.0 45.0)
           (-30.0 30.0)
           (-30.0 30.0)
  end
  begin
     id 13 
     name thorax
     direction 0.00473652 0.989004 0.147814   
     length 1.94516   
     axis 0 0 0   XYZ
    dof rx ry rz
    limits (-20.0 45.0)
           (-30.0 30.0)
           (-30.0 30.0)
  end
  begin
     id 14 
     name lowerneck
     direction -0.00925808 0.999011 0.0434791   
     length 1.81771   
     axis 0 0 0   XYZ
    dof rx ry rz
    limits (-20.0 45.0)
           (-30.0 30.0)
           (-30.0 30.0)
  end
  begin
     id 15 
     name upperneck
     direction 0.00451595 0.964412 -0.264365   
     length 1.80434   
     axis 0 0 0   XYZ
    dof rx ry rz
    limits (-20.0 45.0)
           (-30.0 30.0)
           (-30.0 30.0)
  end
  begin
     id 16
     name head
     direction -0.00110849 0.995756 -0.0920241  
     length 1.84006  
     axis 0 0 0   XYZ
    dof rx ry rz
    limits (-20.0 45.0)
           (-30.0 30.0)
           (-30.0 30.0)
  end
  begin
     id 17 
     name lclavicle
     direction 0.921253 0.385213 0.0538957  
     length 3.67415  
     axis 0 0 0   XYZ
    dof ry rz
    limits (-20.0 10.0)
           (0.0 20.0)
  end
  begin
     id 18 
     name lhumerus
     direction 1 -4.48961e-011 6.73441e-028   
     length 4.32712   
     axis 180 -30 -90   XYZ
    dof rx ry rz
    limits (-60.0 90.0)
           (-90.0 90.0)
           (-90.0 90.0)
  end
  begin
     id 19
     name lradius
     direction 1 -4.48985e-011 -9.53507e-028   
     length 3.28587   
     axis 180 -30 -90   XYZ
    dof rx
    limits (-10.0 170.0)
  end
  begin
     id 20
     name lwrist
     direction 1 -4.48951e-011 -4.67472e-027   
     length 1.64293   
     axis 1.65735e-015 90 90   XYZ
    dof ry
    limits (-180.0 0.0)
 end
  begin
     id 21 
     name lhand
     direction 1 -4.48946e-011 -9.34945e-027   
     length 0.433158   
     axis 5.96574e-015 90 90   XYZ
    dof rx rz
    limits (-90.0 90.0)
           (-45.0 45.0)
  end
  begin
     id 22 
     name lfingers
     direction 1 -4.48882e-011 -1.86989e-026   
     length 0.349224   
     axis 1.19315e-014 90 90   XYZ
    dof rx
    limits (0.0 90.0)
  end
  begin
     id 23
     name lthumb
     direction 0.707107 -6.3493e-011 0.707107   
     length 0.501417   
     axis -90 45 2.85299e-015   XYZ
    dof rx rz
    limits (-45.0 45.0)
           (-45.0 45.0)
  end
  begin
     id 24 
     name rclavicle
     direction -0.884378 0.46502 -0.0403866   
     length 3.50218  
     axis 0 0 0   XYZ 
    dof ry rz
    limits (-10.0 20.0)
           (-20.0 0.0)
  end
  begin
     id 25 
     name rhumerus
     direction -1 -4.48964e-011 1.58188e-027  
     length 4.29104   
     axis 180 30 90   XYZ
    dof rx ry rz
    limits (-90.0 60.0)
           (-90.0 90.0)
           (-90.0 90.0)
  end
  begin
     id 26 
     name rradius
     direction -1 -4.48978e-011 -1.9722e-027   
     length 3.2272   
     axis 180 30 90   XYZ
    dof rx
    limits (-10.0 170.0)
  end
  begin
     id 27 
     name rwrist
     direction -1 -4.48969e-011 -4.67472e-027   
     length 1.6136   
     axis 1.65735e-015 -90 -90   XYZ
    dof ry
    limits (-180.0 0.0)
  end
  begin
     id 28
     name rhand
     direction -1 -4.48846e-011 -9.34945e-027   
     length 0.543623   
     axis 5.96574e-015 -90 -90   XYZ
    dof rx rz
    limits (-90.0 90.0)
           (-45.0 45.0)
  end
  begin
     id 29
     name rfingers
     direction -1 -4.49074e-011 -1.86989e-026   
     length 0.438283   
     axis 1.19315e-014 -90 -90   XYZ
    dof rx
    limits (0.0 90.0)
  end
  begin
     id 30
     name rthumb
     direction -0.707107 -6.34834e-011 0.707107   
     length 0.629289   
     axis -90 -45 -2.85299e-015   XYZ
    dof rx rz
    limits (-45.0 45.0)
           (-45.0 45.0)
  end
:hierarchy
  begin
    root lhipjoint rhipjoint lowerback
    lhipjoint lfemur
    lfemur ltibia
    ltibia lfoot
    lfoot ltoes
    rhipjoint rfemur
    rfemur rtibia
    rtibia rfoot
    rfoot rtoes
    lowerback upperback
    upperback thorax
    thorax lowerneck lclavicle rclavicle
    lowerneck upperneck
    upperneck head
    lclavicle lhumerus
    lhumerus lradius
    lradius lwrist
    lwrist lhand lthumb
    lhand lfingers
    rclavicle rhumerus
    rhumerus rradius
    rradius rwrist
    rwrist rhand rthumb
    rhand rfingers
  end

#!OML:ASF H:\GeneralSubjects\Female5\Project 1\Capture day 1\Session 1\Female5.ASF
:FULLY-SPECIFIED
:DEGREES
97
root -24.2246 15.8836 -0.426577 -160.691 72.7576 192.205
lowerback 5.95698 2.30729 7.2598
upperback -11.7648 5.21309 2.43248
thorax -16.2259 2.01891 -2.37294
lowerneck -24.3288 -6.79271 -12.6198
upperneck 47.3273 -3.44933 4.50067
head 28.1629 -2.19337 4.96958
rclavicle 6.06293e-014 4.69132e-014
rhumerus -8.02677 -1.19605 -74.0838
rradius 86.6017
rwrist -23.3913
rhand -49.3827 -39.1433
rfingers 7.12502
rthumb -21.9965 -67.9126
lclavicle 6.06293e-014 4.69132e-014
lhumerus -59.7967 22.1145 44.2906
lradius 32.9131
lwrist -1.20663
lhand -24.9915 44.867
lfingers 7.12502
lthumb 1.51981 74.8414
rfemur 9.69761 16.2017 33.7696
rtibia 1.13099
rfoot -31.1622 -27.6979
rtoes -12.4277
lfemur -25.9478 -18.9584 -17.9112
ltibia 24.052
lfoot -10.4305 5.23816
ltoes -77.2476
98
root -24.1546 15.8951 -0.479026 -160.337 72.9979 192.379
lowerback 5.7977 2.36114 7.52801
upperback -11.8292 5.30894 2.3542
thorax -16.1696 2.02921 -2.61643
lowerneck -24.2095 -6.94194 -12.9468
upperneck 47.3194 -3.6548 4.70851
head 28.2188 -2.31004 5.11487
rclavicle 1.74931e-014 7.95139e-016
rhumerus -7.62892 8.22143 -76.1656
rradius 85.9338
rwrist -9.08754
rhand -50.85 -40.5249
rfingers 7.12502
rthumb -23.4048 -69.1217
lclavicle 1.74931e-014 7.95139e-016
lhumerus -59.2639 21.8945 45.232
lradius 33.7428
lwrist -0.694045
lhand -25.2431 44.7833
lfingers 7.12502
lthumb 1.27674 74.7592
rfemur 10.1098 16.8866 33.968
rtibia 0.816838
rfoot -30.456 -28.6036
rtoes -15.0922
lfemur -25.5254 -18.8762 -18.0926
ltibia 23.6832
lfoot -10.8232 5.61188
ltoes -77.2553
99
root -24.0866 15.9066 -0.52342 -160.456 73.2728 192.125
lowerback 5.66637 2.44555 7.54434
upperback -11.8536 5.40156 2.26073
thorax -16.0927 2.0664 -2.73835
lowerneck -24.0966 -7.13103 -13.2519
upperneck 47.3543 -3.91687 4.90036
head 28.3664 -2.44392 5.23999
rclavicle 1.59028e-015 -3.81667e-014
rhumerus -5.49298 11.2717 -77.1896
rradius 82.0535
rwrist -27.9713
rhand -6.15965 58.9425
rfingers 7.12502
rthumb 19.6789 29.9186
lclavicle 1.59028e-015 -3.81667e-014
lhumerus -58.589 21.7599 46.249
lradius 34.6572
lwrist 0.113957
lhand -25.9609 44.5083
lfingers 7.12502
lthumb 0.583524 74.4872
rfemur 10.6839 17.7659 34.1377
rtibia 0.381816
rfoot -29.3257 -29.8412
rtoes -18.2199
lfemur -25.0044 -18.8045 -18.423
ltibia 23.2454
lfoot -10.854 6.03112
ltoes -77.2625
100
root -24.02 15.9184 -0.559517 -160.705 73.5529 191.777
lowerback 5.50828 2.54952 7.50229
upperback -11.8376 5.49832 2.1472
thorax -15.9468 2.11311 -2.84728
lowerneck -24.0199 -7.36687 -13.5541
upperneck 47.4346 -4.22286 5.05779
head 28.6311 -2.59913 5.34173
rclavicle -7.15625e-015 -1.27222e-014
rhumerus -3.03364 9.31217 -77.7197
rradius 82.6366
rwrist -92.5044
rhand 24.181 -74.5511
rfingers 7.12502
rthumb 48.4082 96.5712
lclavicle -7.15625e-015 -1.27222e-014
lhumerus -57.7896 21.6561 47.3849
lradius 35.6695
lwrist 1.14108
lhand -26.3981 44.0925
lfingers 7.12502
lthumb 0.161212 74.0722
rfemur 11.3016 18.7077 34.3385
rtibia -0.0690869
rfoot -33.382 -29.5569
rtoes -10.8642
lfemur -24.4275 -18.6041 -18.778
ltibia 22.7467
lfoot -10.4992 6.37956
ltoes -77.2751
101
root -23.9587 15.9287 -0.59157 -160.693 73.7746 191.719
lowerback 5.43666 2.65089 7.51102
upperback -11.8281 5.61908 2.08857
thorax -15.8676 2.16706 -2.93255
lowerneck -23.9332 -7.59871 -13.9177
upperneck 47.4534 -4.53122 5.26286
head 28.8209 -2.76185 5.47682
rclavicle 2.90226e-014 1.51076e-014
rhumerus -2.04347 20.9332 -78.2776
rradius 83.2137
rwrist -83.34
rhand 37.3483 -65.8732
rfingers 7.12502
rthumb 60.163 -79.4813
lclavicle 2.90226e-014 1.51076e-014
lhumerus -56.9078 21.5405 48.7389
lradius 36.7291
lwrist 2.32589
lhand -26.1032 43.7623
lfingers 7.12502
lthumb 0.446062 73.7416
rfemur 11.754 19.2073 34.4738
rtibia -0.394259
rfoot -34.9139 -29.7348
rtoes -8.73884
lfemur -23.8383 -18.4732 -19.0189
ltibia 22.1998
lfoot -10.227 6.63959
ltoes -77.2807
102
root -23.9008 15.9358 -0.6195 -160.786 73.897 191.564
lowerback 5.34631 2.75425 7.29511
upperback -11.8362 5.7298 2.11645
thorax -15.8254 2.25149 -2.79637
lowerneck -23.7225 -7.83008 -14.2568
upperneck 47.4859 -4.83974 5.42098
head 28.9518 -2.91742 5.57441
rclavicle 1.0476e-013 1.00983e-013
rhumerus -0.302823 28.0595 -77.6393
rradius 82.6153
rwrist -80.6442
rhand 44.0545 -53.8605
rfingers 7.12502
rthumb 65.6586 -59.9012
lclavicle 1.0476e-013 1.00983e-013
lhumerus -55.9634 21.3651 50.3636
lradius 37.8096
lwrist 3.60967
lhand -25.4393 43.4803
lfingers 7.12502
lthumb 1.08728 73.4573
rfemur 12.2109 19.6621 34.6067
rtibia -0.734656
rfoot -32.8947 -30.7216
rtoes -12.6574
lfemur -23.243 -18.4789 -19.2632
ltibia 21.6075
lfoot -10.4194 6.93212
ltoes -77.2817
103
root -23.846 15.9415 -0.641569 -160.891 73.8751 191.402
lowerback 5.19837 2.84196 7.01778
upperback -11.8488 5.80831 2.14887
thorax -15.7605 2.33083 -2.61209
lowerneck -23.4468 -8.07174 -14.5153
upperneck 47.5474 -5.19797 5.55029
head 29.0966 -3.07224 5.6267
rclavicle 6.10269e-014 1.74931e-014
rhumerus 1.08385 36.8951 -76.3529
rradius 83.2078
rwrist -70.3143
rhand 53.3975 -39.636
rfingers 7.12502
rthumb 71.999 -27.6416
lclavicle 6.10269e-014 1.74931e-014
lhumerus -54.8952 21.0557 52.1697
lradius 38.8733
lwrist 4.61667
lhand -25.0045 43.1975
lfingers 7.12502
lthumb 1.5072 73.1719
rfemur 12.6537 20.1008 34.8076
rtibia -0.999895
rfoot -31.9565 -31.2686
rtoes -14.1292
lfemur -22.7399 -18.6109 -19.4491
ltibia 21.1076
lfoot -10.5129 7.17591
ltoes -77.2785
104
root -23.7984 15.9453 -0.657903 -160.816 73.6852 191.448
lowerback 5.12788 2.90335 6.84256
upperback -11.8552 5.8713 2.17808
thorax -15.7335 2.38769 -2.49001
lowerneck -23.2471 -8.33996 -14.7446
upperneck 47.6096 -5.60218 5.67081
head 29.3151 -3.23983 5.65828
rclavicle -7.55382e-014 -6.83819e-014
rhumerus 2.47775 45.3952 -74.7145
rradius 82.2607
rwrist -39.7543
rhand 53.5518 7.92951
rfingers 7.12502
rthumb 72.0826 20.3239
lclavicle -7.55382e-014 -6.83819e-014
lhumerus -53.7218 20.6489 54.0992
lradius 39.9219
lwrist 5.27057
lhand -24.6044 42.917
lfingers 7.12502
lthumb 1.89366 72.8884
rfemur 12.9796 20.2915 35.0302
rtibia -1.13365
rfoot -34.5466 -30.791
rtoes -9.76813
lfemur -22.4173 -18.9246 -19.4924
ltibia 20.8233
lfoot -10.3645 7.41814
ltoes -77.2843
105
root -23.7597 15.9479 -0.668795 -160.603 73.3431 191.619
lowerback 5.08311 2.95876 6.61096
upperback -11.8428 5.9299 2.2716
thorax -15.7135 2.45501 -2.26639
lowerneck -23.1184 -8.63811 -15.0435
upperneck 47.66 -6.04239 5.8688
head 29.629 -3.43025 5.75503
rclavicle -3.1408e-014 -2.14687e-014
rhumerus 4.10105 51.0584 -72.7248
rradius 84.5672
rwrist -23.7172
rhand 37.9881 8.29941
rfingers 7.12502
rthumb 60.7075 -4.7161
lclavicle -3.1408e-014 -2.14687e-014
lhumerus -52.5422 20.2637 56.0833
lradius 41.0026
lwrist 5.58588
lhand -23.6993 42.443
lfingers 7.12502
lthumb 2.76778 72.4048
rfemur 13.183 20.3361 35.2567
rtibia -1.23013
rfoot -32.9036 -31.0684
rtoes -12.3934
lfemur -22.3358 -19.4164 -19.3928
ltibia 20.7702
lfoot -10.2754 7.74016
ltoes -77.2935
106
root -23.73 15.9502 -0.678545 -160.303 72.7962 191.769
lowerback 4.96028 2.95804 6.41968
upperback -11.8627 5.91813 2.36552
thorax -15.6869 2.48731 -2.04827
lowerneck -22.9848 -8.93865 -15.2517
upperneck 47.7078 -6.52668 6.03812
head 29.9458 -3.61703 5.79996
rclavicle 3.39922e-014 7.15625e-015
rhumerus 5.987 58.6428 -69.7994
rradius 88.8186
rwrist -17.3365
rhand 16.239 -12.8361
rfingers 7.12502
rthumb 41.0166 -37.7472
lclavicle 3.39922e-014 7.15625e-015
lhumerus -51.4831 19.8759 57.9758
lradius 42.1722
lwrist 5.54616
lhand -22.9591 41.5075
lfingers 7.12502
lthumb 3.48256 71.4588
rfemur 13.2322 20.1968 35.4204
rtibia -1.3798
rfoot -35.0167 -30.5916
rtoes -9.15992
lfemur -22.5907 -20.0041 -19.1931
ltibia 20.9487
lfoot -10.3561 7.96506
ltoes -77.3019
107
root -23.7058 15.9519 -0.689687 -160.072 72.1259 191.783
lowerback 4.79254 2.89346 6.26463
upperback -11.9315 5.82588 2.43397
thorax -15.6923 2.47593 -1.86365
lowerneck -22.8191 -9.19204 -15.2144
upperneck 47.797 -6.96547 6.0011
head 30.1836 -3.74829 5.65783
rclavicle -3.18055e-015 -3.65764e-014
rhumerus 7.85588 61.9439 -67.5341
rradius 90.4453
rwrist -25.5908
rhand 8.18154 -20.6425
rfingers 7.12502
rthumb 33.3996 -47.5575
lclavicle -3.18055e-015 -3.65764e-014
lhumerus -50.6373 19.3202 59.7417
lradius 43.3708
lwrist 5.24654
lhand -22.3064 40.1977
lfingers 7.12502
lthumb 4.11289 70.1378
rfemur 13.2087 19.9672 35.5128
rtibia -1.59253
rfoot -36.1756 -30.2465
rtoes -7.29625
lfemur -22.9922 -20.611 -18.9996
ltibia 21.1901
lfoot -10.5219 8.09946
ltoes -77.3113
108
root -23.6829 15.9515 -0.697263 -159.809 71.4029 191.898
lowerback 4.66276 2.80102 6.14001
upperback -11.9764 5.70547 2.54316
thorax -15.6965 2.45071 -1.64767
lowerneck -22.6646 -9.44145 -15.2036
upperneck 47.8852 -7.34461 5.88751
head 30.3861 -3.87088 5.47854
rclavicle 3.97569e-015 3.73715e-014
rhumerus 8.96101 62.799 -66.1613
rradius 91.0429
rwrist -28.3464
rhand 11.0041 -20.7941
rfingers 7.12502
rthumb 36.0781 -47.0914
lclavicle 3.97569e-015 3.73715e-014
lhumerus -49.9125 18.6023 61.4223
lradius 44.4487
lwrist 4.80382
lhand -20.6648 38.2939
lfingers 7.12502
lthumb 5.69796 68.1973
rfemur 13.2718 19.818 35.7376
rtibia -1.84304
rfoot -36.1545 -30.4569
rtoes -7.47921
lfemur -23.3466 -21.2196 -18.7588
ltibia 21.3759
lfoot -10.6362 8.21039
ltoes -77.3266
109
root -23.659 15.9486 -0.699044 -159.479 70.6385 192.146
lowerback 4.54385 2.69731 6.04564
upperback -11.9813 5.57308 2.68874
thorax -15.6592 2.42008 -1.40519
lowerneck -22.5308 -9.64011 -15.3548
upperneck 47.895 -7.63435 5.92798
head 30.5038 -3.98766 5.45702
rclavicle 2.78299e-014 3.26007e-014
rhumerus 9.29281 62.9817 -65.3237
rradius 92.0717
rwrist -31.1195
rhand 14.4887 -21.7037
rfingers 7.12502
rthumb 39.3702 -47.1167
lclavicle 2.78299e-014 3.26007e-014
lhumerus -49.2814 17.7967 63.0429
lradius 45.4797
lwrist 4.40067
lhand -19.0325 36.4031
lfingers 7.12502
lthumb 7.27376 66.2581
rfemur 13.4308 19.8145 36.1487
rtibia -2.07355
rfoot -35.8064 -31.0321
rtoes -8.73398
lfemur -23.692 -21.7485 -18.433
ltibia 21.6237
lfoot -10.9059 8.22474
ltoes -77.3406
110
root -23.6375 15.9444 -0.70024 -159.181 69.9153 192.352
lowerback 4.34636 2.56457 6.02726
upperback -11.9507 5.38543 2.77761
thorax -15.5149 2.35128 -1.25183
lowerneck -22.4362 -9.77401 -15.4305
upperneck 47.8854 -7.9044 6.07048
head 30.6182 -4.07647 5.49935
rclavicle 7.13637e-014 2.70347e-014
rhumerus 8.80552 62.584 -65.4501
rradius 93.0225
rwrist -33.381
rhand 18.5715 -22.4843
rfingers 7.12502
rthumb 43.2021 -46.6584
lclavicle 7.13637e-014 2.70347e-014
lhumerus -48.7854 16.9031 64.4455
lradius 46.5547
lwrist 4.13778
lhand -19.176 35.9983
lfingers 7.12502
lthumb 7.13524 65.858
rfemur 13.5968 19.9482 36.5904
rtibia -2.29301
rfoot -36.0427 -31.5456
rtoes -8.95845
lfemur -24.0811 -22.1714 -18.095
ltibia 22.0258
lfoot -11.2709 8.23184
ltoes -77.3521
